<svg xmlns="http://www.w3.org/2000/svg" viewBox="0 0 82.48 77.59">
  <defs>
    <linearGradient id="lg" y1="12" x2="82.48" y2="12" gradientUnits="userSpaceOnUse">
      <stop offset="0" stop-color="#f2cc0c"/>
      <stop offset="1" stop-color="#ff9830"/>
    </linearGradient>
  </defs>
  <!-- UCL - dashed blue, just above the line's peak -->
  <line x1="0" y1="14" x2="82" y2="14" stroke="#84aff1" stroke-width="4" stroke-dasharray="9 6"/>
  <!-- LCL - dashed blue, just below the line's trough -->
  <line x1="0" y1="52" x2="82" y2="52" stroke="#84aff1" stroke-width="4" stroke-dasharray="9 6"/>
  <!-- Center line -->
  <line x1="0" y1="33" x2="82" y2="33" stroke="#84aff1" stroke-width="2" stroke-opacity="0.7"/>
  <!-- Exact yellow gradient line from Grafana's time series icon, shifted down -->
  <g transform="translate(0, 20)">
    <path fill="url(#lg)" d="M33.26,24a2,2,0,0,1-.83-.18l-14.7-6.66-15,5.71a2,2,0,1,1-1.42-3.74l15.8-6a2,2,0,0,1,1.53,0l14.16,6.41,15-16A2,2,0,0,1,50,3.16L65.15,9.73,79.38.33a2,2,0,1,1,2.2,3.34l-15.13,10a2,2,0,0,1-1.9.16L49.72,7.39l-15,16A2,2,0,0,1,33.26,24Z"/>
  </g>
</svg>
